<svg width="512" height="512" viewBox="0 0 512 512" fill="none" xmlns="http://www.w3.org/2000/svg">
<path d="M437.02 74.98C388.667 26.629 324.38 0 256 0C187.62 0 123.333 26.629 74.98 74.98C26.629 123.333 0 187.62 0 256C0 324.38 26.629 388.667 74.98 437.02C123.333 485.371 187.62 512 256 512C324.38 512 388.667 485.371 437.02 437.02C485.371 388.667 512 324.38 512 256C512 187.62 485.371 123.333 437.02 74.98ZM241 80H271V140H241V80ZM140 271H80V241H140V271ZM148.041 210.99L96.079 180.99L111.079 155.01L163.041 185.01L148.041 210.99ZM185.01 163.041L155.01 111.08L180.99 96.08L210.99 148.041L185.01 163.041ZM256 396C233.909 396 216 378.091 216 356C216 339.215 226.343 324.854 241 318.919V191H271V318.919C285.657 324.854 296 339.215 296 356C296 378.091 278.091 396 256 396ZM301.01 148.041L331.01 96.08L356.99 111.08L326.99 163.041L301.01 148.041ZM348.959 185.01L400.921 155.01L415.921 180.99L363.959 210.99L348.959 185.01ZM432 271H372V241H432V271Z" fill="white"/>
</svg>
