<svg width="512" height="512" viewBox="0 0 512 512" fill="none" xmlns="http://www.w3.org/2000/svg">
<path d="M341.861 428.438C345.46 429.198 346.998 433.457 344.767 436.381C309.952 482.028 254.552 511.998 192 511.998C86.13 511.998 0 425.868 0 319.998C0 237.537 39.786 159.663 91.51 94.998C136.19 39.148 180.36 4.77799 182.22 3.33799C187.98 -1.11201 196.02 -1.11201 201.78 3.33799C203.666 4.78499 238.126 31.642 276.705 76.054C278.279 77.866 278.32 80.54 276.836 82.427C237.273 132.786 208 196.261 208 260.799C208 342.53 264.639 412.13 341.861 428.438V428.438Z" fill="white"/>
<path d="M512 260.799C512 341.094 445.488 405.089 366.73 399.679C296.026 394.776 240 334.346 240 260.799C240 204.418 265.792 150.011 300.11 104.729C321.799 76.213 348.606 49.269 366.06 35.469C371.88 30.849 380.12 30.849 385.94 35.469C387.23 36.489 417.8 60.909 448.62 100.469C490.08 153.679 512 209.119 512 260.799Z" fill="white"/>
</svg>
