<svg width="520" height="520" viewBox="0 0 520 520" fill="none" xmlns="http://www.w3.org/2000/svg">
<g filter="url(#filter0_d)">
<path d="M245 138.294V343.706L305 333.704V148.296L245 138.294Z" fill="white"/>
<path d="M335 153.294V328.706L395 318.704V163.296L335 153.294Z" fill="white"/>
<path d="M503.461 181.205L425 168.294V313.705L503.461 300.794C510.697 299.594 516 293.339 516 286V196C516 188.661 510.697 182.406 503.461 181.205Z" fill="white"/>
<path d="M142.461 121.206C137.188 121.299 142.304 120.997 135.254 121.777L64 145.194V87.237C81.422 81.024 94 64.53 94 45C94 20.186 73.814 0 49 0C24.186 0 4 20.186 4 45C4 64.53 16.578 81.024 34 87.237V497C34 505.291 40.709 512 49 512C57.291 512 64 505.291 64 497V336.806L135.254 360.223C137.645 361.02 140.02 361.186 142.461 360.794L215 348.704V133.296L142.461 121.206ZM125 325.194L64 305.195V176.805L125 156.806V325.194Z" fill="white"/>
</g>
<defs>
<filter id="filter0_d" x="0" y="0" width="520" height="520" filterUnits="userSpaceOnUse" color-interpolation-filters="sRGB">
<feFlood flood-opacity="0" result="BackgroundImageFix"/>
<feColorMatrix in="SourceAlpha" type="matrix" values="0 0 0 0 0 0 0 0 0 0 0 0 0 0 0 0 0 0 127 0"/>
<feOffset dy="4"/>
<feGaussianBlur stdDeviation="2"/>
<feColorMatrix type="matrix" values="0 0 0 0 0 0 0 0 0 0 0 0 0 0 0 0 0 0 0.25 0"/>
<feBlend mode="normal" in2="BackgroundImageFix" result="effect1_dropShadow"/>
<feBlend mode="normal" in="SourceGraphic" in2="effect1_dropShadow" result="shape"/>
</filter>
</defs>
</svg>
