<svg width="512" height="512" viewBox="0 0 512 512" fill="none" xmlns="http://www.w3.org/2000/svg">
<g clip-path="url(#clip0)">
<path d="M235.988 280.004C215.85 280.004 199.52 263.381 199.999 243.136C200.464 223.484 217.006 208.005 236.663 208.005H313.144C316.322 208.005 318.722 210.938 318.04 214.041C309.757 251.716 276.112 280.004 235.988 280.004V280.004Z" fill="white"/>
<path d="M478.985 375.002H390.986C386.747 375.002 382.682 376.686 379.685 379.683L344.367 415.002H247.988V391.282C337.567 383.172 407.986 307.663 407.986 216.005V197.265C428.564 185.341 442.799 164.851 446.795 141.866C447.327 138.807 444.965 136.005 441.86 136.005H367.987C355.567 136.005 348.027 122.546 354.127 112.005H354.727C354.967 111.335 355.217 110.665 355.487 110.005C358.427 106.345 362.927 104.005 367.987 104.005H482.295C484.155 104.005 485.86 102.971 486.731 101.328C492.629 90.2006 495.974 77.5178 495.985 64.074C495.992 55.2381 488.821 48.0063 479.985 48.0063H399.986C355.804 48.0063 319.987 83.8227 319.987 128.005V171.004C319.987 173.765 322.226 176.004 324.987 176.004H335.987C344.828 176.004 351.987 183.176 351.987 192.018C351.987 196.78 352.064 201.303 351.367 208.004C345.459 265.264 297.729 310.293 239.332 311.954C200.461 313.06 167.624 282.233 167.993 243.347C168.212 220.249 180.017 199.872 197.862 187.741C199.216 186.82 200.011 185.276 200.01 183.638L199.989 135.335C222.659 131.525 239.988 111.755 239.988 88.0056C239.988 70.6259 230.449 54.8661 215.969 46.4463C214.798 10.1038 175.115 -11.5298 143.99 6.4469C112.323 -11.8428 71.9911 10.8968 71.9911 48.0063C71.9911 55.4661 73.7211 62.726 76.961 69.2659C64.6412 81.6657 56.7814 98.5055 56.0514 117.145L26.0518 129.145C12.663 134.496 12.675 153.519 26.0518 158.865L55.9914 170.844V216.004C55.9914 307.662 126.41 383.171 215.989 391.281V415.001H71.6181L84.3049 402.314C90.5538 396.066 90.5538 385.935 84.3049 379.687C78.057 373.438 67.9262 373.438 61.6783 379.687C18.21 423.155 20.7739 420.285 19.2659 422.81C16.129 428.056 16.236 434.726 19.6869 439.883C20.9579 441.784 18.373 439.007 61.6783 482.313C67.9262 488.562 78.058 488.561 84.3049 482.313C90.5538 476.066 90.5538 465.935 84.3049 459.687L71.6181 447H215.989V495.547C215.989 504.163 222.61 511.576 231.216 511.981C240.403 512.413 247.988 505.092 247.988 495.999V447H344.367L379.685 482.318C382.682 485.315 386.747 486.999 390.986 486.999H478.985C493.226 486.999 500.346 469.72 490.295 459.69L461.615 431L490.295 402.311C500.375 392.253 493.191 375.002 478.985 375.002V375.002Z" fill="white"/>
</g>
<defs>
<clipPath id="clip0">
<rect width="512" height="512" fill="white"/>
</clipPath>
</defs>
</svg>
